<svg id="Capa_1" enable-background="new 0 0 512 512" height="512" viewBox="0 0 512 512" width="512" xmlns="http://www.w3.org/2000/svg"><g><path d="m512 256c0 40.94-9.61 79.63-26.7 113.94l-8.56 6.1c-22.09 15.74-37.76 38.92-44.13 65.28-45.94 43.79-108.14 70.68-176.61 70.68-80.91 0-153.05-37.54-199.96-96.14-.37-28.29-13.27-54.95-35.2-72.82l-7.88-6.41c-8.41-25.35-12.96-52.46-12.96-80.63 0-46.22 12.25-89.57 33.68-127 44.12-77.07 127.16-129 222.32-129s178.2 51.93 222.32 129c21.43 37.43 33.68 80.78 33.68 127z" fill="#00e1c3"/><path d="m512 256c0 40.94-9.61 79.63-26.7 113.94l-8.56 6.1c-22.09 15.74-37.76 38.92-44.13 65.28-45.94 43.79-108.14 70.68-176.61 70.68-80.9 0-153.05-37.54-199.96-96.14v-.01c-.37-28.29-13.27-54.94-35.2-72.81l-7.88-6.41c-8.41-25.35-12.96-52.46-12.96-80.63 0-46.22 12.25-89.57 33.68-127 44.12 77.07 127.16 129 222.32 129s178.2-51.93 222.32-129c21.43 37.43 33.68 80.78 33.68 127z" fill="#05d3b0"/><g><g><path d="m135.308 427.58c-4.931 1.768-10.362-.796-12.13-5.728l-11.455-31.948c-1.768-4.931.796-10.362 5.728-12.13 4.931-1.768 10.362.796 12.13 5.727l11.455 31.948c1.768 4.932-.797 10.363-5.728 12.131z" fill="#22273b"/><g><g fill="#22273b"><path d="m82.28 323.6c-3.696 1.325-7.766-.597-9.091-4.293l-17.146-47.82c-3.102-8.651-12.664-13.166-21.316-10.064-3.696 1.325-7.766-.597-9.091-4.293s.597-7.766 4.293-9.091c16.032-5.748 33.75 2.618 39.498 18.649l17.146 47.821c1.324 3.695-.598 7.766-4.293 9.091z"/><path d="m109.882 313.703c-3.696 1.325-7.766-.597-9.091-4.293l-17.146-47.82c-5.748-16.031 2.618-33.75 18.65-39.498 3.696-1.325 7.766.597 9.091 4.293s-.597 7.766-4.293 9.091c-8.652 3.102-13.167 12.664-10.065 21.315l17.146 47.82c1.325 3.697-.597 7.767-4.292 9.092z"/></g><g><path d="m79.76 387.85-23.72 28.01c-18.73-23.4-33.44-50.16-43.08-79.23 3.53-1.2 7.42-1.55 11.43-.82l39.26 7.11c6.17 1.11 11.26 5.44 13.38 11.33l5.86 16.35c2.12 5.9.93 12.48-3.13 17.25z" fill="#fff"/><path d="m79.76 387.85-23.72 28.01c-9.05-11.31-17.16-23.4-24.22-36.16l48.14-17.26 2.93 8.16c2.12 5.9.93 12.48-3.13 17.25z" fill="#d0f6ff"/><path d="m217.31 336.776c6.96 18.322-8.431 35.142-25.822 31.986l-38.838-7.043c-6.165-1.113-11.26-5.434-13.374-11.331l-5.863-16.352c-2.114-5.897-.926-12.471 3.127-17.247l25.798-30.44c9.908-11.691 28.258-10.62 36.744 2.143 1.211 1.742 2.144 3.576 2.819 5.458 4.217 11.762-1.672 25.371-14.135 29.839l.354-.127c11.676-4.187 24.791 1.515 29.19 13.114z" fill="#d0f6ff"/><path d="m217.31 336.776c6.96 18.322-8.431 35.142-25.822 31.986l-38.838-7.043c-6.165-1.113-11.26-5.434-13.374-11.331l-2.927-8.164 51.772-18.562c11.675-4.187 24.79 1.515 29.189 13.114z" fill="#b0edf7"/></g><g><path d="m152.771 348.872 1.491 4.157c2.351 6.558 3.019 13.302 2.223 19.78l-.008.003c-8.671 10.857-20.029 18.803-32.618 23.316-5.117 1.835-10.438 3.103-15.859 3.767-7.922.974-16.075.663-24.142-1.046-4.736-4.486-8.508-10.126-10.86-16.684l-1.491-4.157c5.576-5.189 11.622-9.738 18.042-13.612 6.222-3.759 12.792-6.87 19.595-9.309 13.833-4.96 28.665-7.132 43.627-6.215z" fill="#ffe652"/><path d="m109.144 355.087c13.833-4.96 28.664-7.132 43.626-6.215l1.491 4.157c2.351 6.558 3.019 13.302 2.223 19.78l-.008.003c-8.671 10.857-20.029 18.803-32.618 23.316-5.117 1.835-10.438 3.103-15.859 3.767-2.073-2.189-4.09-4.717-5.988-7.556-3.35-4.983-6.351-10.899-8.703-17.457l-3.76-10.487c6.224-3.758 12.794-6.869 19.596-9.308z" fill="#fed110"/><path d="m109.144 355.087c13.833-4.96 28.664-7.132 43.626-6.215l1.491 4.157c2.351 6.558 3.019 13.302 2.223 19.78l-.008.003c-8.671 10.857-20.029 18.803-32.618 23.316z" fill="#ff9f01"/><path d="m136.712 304.083 8.031 22.398c-10.979 10.218-23.804 17.962-37.639 22.913-6.802 2.439-13.86 4.214-21.045 5.262-7.42 1.088-14.979 1.417-22.581.953l-8.028-22.39c5.643-5.249 11.77-9.844 18.28-13.742 6.155-3.699 12.644-6.764 19.359-9.171 13.832-4.959 28.661-7.14 43.623-6.223z" fill="#ffe652"/><path d="m136.712 304.083 8.031 22.398c-10.979 10.218-23.804 17.962-37.639 22.913-6.802 2.439-13.86 4.214-21.045 5.262l-10.298-28.72c-.776-2.165-1.452-4.322-2.032-6.459 6.155-3.699 12.644-6.764 19.359-9.171 13.833-4.959 28.662-7.14 43.624-6.223z" fill="#fed110"/><path d="m136.712 304.083 8.031 22.398c-10.979 10.218-23.804 17.962-37.639 22.913l-14.015-39.089c13.832-4.958 28.661-7.139 43.623-6.222z" fill="#ff9f01"/><path d="m136.712 304.083-81.263 29.137c-8.045-22.438 3.626-47.155 26.063-55.2 22.438-8.045 47.155 3.626 55.2 26.063z" fill="#53354b"/><path d="m136.712 304.083-60.952 21.854c-8.045-22.437-5.467-43.895 5.752-47.917 22.438-8.045 47.155 3.626 55.2 26.063z" fill="#42293d"/><path d="m64.959 340.344h86.329v23.794h-86.329z" fill="#53354b" transform="matrix(.941 -.338 .338 .941 -112.536 57.158)"/><path d="m85.904 336.702h64.751v23.794h-64.751z" fill="#42293d" transform="matrix(.941 -.338 .338 .941 -110.713 60.374)"/><path d="m156.485 372.809c-.563 4.6-1.867 9.066-3.827 13.216-4.717 9.99-13.241 18.181-24.46 22.204-15.88 5.694-32.902 1.508-44.34-9.38z" fill="#53354b"/><path d="m102.012 392.34 54.472-19.531c-.563 4.6-1.867 9.066-3.827 13.216-4.717 9.99-13.241 18.181-24.46 22.204-7.943 2.848-18.084-3.805-26.185-15.889z" fill="#42293d"/></g></g><g fill="#22273b"><path d="m120.167 385.831 36.317-13.021c-.563 4.6-1.867 9.066-3.827 13.216-4.717 9.99-13.241 18.181-24.46 22.204z"/><path d="m136.712 304.083-40.632 14.569-14.568-40.632c22.438-8.045 47.155 3.626 55.2 26.063z"/><path d="m106.858 333.06h43.164v23.794h-43.164z" transform="matrix(.941 -.338 .338 .941 -108.887 63.589)"/></g></g><g><path d="m354.248 444.857c-4.653-2.408-6.473-8.131-4.065-12.784l15.597-30.143c2.408-4.653 8.131-6.473 12.784-4.065 4.652 2.407 6.473 8.131 4.065 12.783l-15.598 30.143c-2.407 4.653-8.13 6.473-12.783 4.066z" fill="#22273b"/><g><g fill="#22273b"><path d="m394.29 335.218c-3.487-1.804-4.851-6.094-3.047-9.581l23.346-45.119c4.224-8.162 1.019-18.24-7.144-22.464-3.487-1.804-4.851-6.094-3.047-9.581s6.094-4.851 9.581-3.047c15.126 7.827 21.064 26.5 13.238 41.625l-23.347 45.119c-1.804 3.488-6.093 4.852-9.58 3.048z"/><path d="m420.332 348.693c-3.487-1.804-4.851-6.094-3.047-9.581l23.347-45.119c7.826-15.125 26.5-21.063 41.626-13.237 3.487 1.804 4.851 6.094 3.047 9.581s-6.094 4.851-9.581 3.047c-8.163-4.224-18.24-1.019-22.464 7.143l-23.346 45.119c-1.805 3.488-6.095 4.852-9.582 3.047z"/></g><g><path d="m368.265 352.244-7.983 15.428c-2.879 5.564-8.503 9.17-14.761 9.454l-39.429 1.821c-17.656.818-30.676-17.898-21.344-35.133 5.901-10.912 19.657-14.821 30.673-9.121l.334.173c-11.759-6.084-15.788-20.355-10.045-31.452.918-1.776 2.087-3.469 3.519-5.035 10.106-11.523 28.435-10.147 36.703 2.757l21.526 33.598c3.382 5.272 3.686 11.946.807 17.51z" fill="#fff"/><path d="m364.268 359.969-3.986 7.703c-2.879 5.564-8.503 9.17-14.761 9.454l-39.429 1.821c-17.656.818-30.676-17.898-21.344-35.133 5.901-10.912 19.657-14.821 30.673-9.121z" fill="#d0f6ff"/><path d="m485.3 369.94c-8.06 16.19-17.78 31.41-28.94 45.42-7.32 9.19-15.26 17.86-23.75 25.96l-18.32-28.61c-3.38-5.27-3.69-11.95-.81-17.51l7.99-15.43c2.87-5.56 8.5-9.17 14.76-9.45l39.86-1.84c3.27-.15 6.38.38 9.21 1.46z" fill="#d0f6ff"/><path d="m460.64 409.83c-1.4 1.87-2.83 3.71-4.28 5.53-7.32 9.19-15.26 17.86-23.75 25.96l-18.32-28.61c-3.38-5.27-3.69-11.95-.81-17.51l3.99-7.7z" fill="#b0edf7"/></g><g><path d="m423.781 404.051-2.029 3.922c-3.202 6.187-7.686 11.269-12.972 15.097l-.007-.004c-13.855 1.042-27.408-1.865-39.286-8.011-4.828-2.498-9.38-5.531-13.558-9.049-6.108-5.138-11.432-11.321-15.673-18.393.06-6.523 1.622-13.126 4.824-19.314l2.029-3.922c7.597.551 15.045 1.881 22.255 3.944 6.99 1.997 13.742 4.69 20.16 8.011 13.05 6.754 24.74 16.137 34.257 27.719z" fill="#ffe652"/><path d="m389.523 376.333c13.051 6.753 24.742 16.136 34.258 27.718l-2.029 3.922c-3.202 6.187-7.686 11.269-12.972 15.097l-.007-.004c-13.855 1.042-27.408-1.865-39.286-8.011-4.828-2.498-9.38-5.531-13.558-9.049.191-3.009.67-6.208 1.456-9.53 1.368-5.846 3.657-12.073 6.859-18.26l5.12-9.894c6.989 1.997 13.741 4.69 20.159 8.011z" fill="#fed110"/><path d="m389.523 376.333c13.051 6.753 24.742 16.136 34.258 27.718l-2.029 3.922c-3.202 6.187-7.686 11.269-12.972 15.097l-.007-.004c-13.855 1.042-27.408-1.865-39.286-8.011z" fill="#ff9f01"/><path d="m445.647 361.793-10.935 21.133c-14.959-1.083-29.363-5.202-42.41-11.963-6.418-3.321-12.524-7.281-18.184-11.829-5.849-4.693-11.237-10.005-16.074-15.889l10.931-21.125c7.687.559 15.224 1.917 22.511 4.03 6.9 1.988 13.563 4.654 19.899 7.933 13.051 6.752 24.746 16.127 34.262 27.71z" fill="#ffe652"/><path d="m445.647 361.793-10.935 21.133c-14.959-1.083-29.363-5.202-42.41-11.963-6.418-3.321-12.524-7.281-18.184-11.829l14.021-27.098c1.057-2.042 2.177-4.006 3.347-5.886 6.9 1.988 13.563 4.654 19.899 7.933 13.051 6.752 24.746 16.127 34.262 27.71z" fill="#fed110"/><path d="m445.647 361.793-10.935 21.133c-14.959-1.083-29.363-5.202-42.41-11.963l19.083-36.88c13.051 6.752 24.746 16.127 34.262 27.71z" fill="#ff9f01"/><path d="m445.647 361.793-76.672-39.674c10.954-21.17 37.003-29.454 58.173-18.5s29.453 37.003 18.499 58.174z" fill="#53354b"/><path d="m445.647 361.793-57.508-29.757c10.954-21.17 28.424-33.893 39.009-28.416 21.17 10.953 29.453 37.002 18.499 58.173z" fill="#42293d"/><path d="m379.015 330.483h23.794v86.329h-23.794z" fill="#53354b" transform="matrix(.46 -.888 .888 .46 -120.592 549.115)"/><path d="m388.597 346.23h23.794v64.751h-23.794z" fill="#42293d" transform="matrix(.46 -.888 .888 .46 -119.816 560.308)"/><path d="m408.779 423.07c-3.752 2.72-7.911 4.806-12.284 6.197-10.528 3.348-22.331 2.683-32.917-2.794-14.982-7.753-23.508-23.069-23.323-38.86z" fill="#53354b"/><path d="m357.384 396.476 51.395 26.594c-3.752 2.72-7.911 4.806-12.284 6.197-10.528 3.348-22.331 2.683-32.917-2.794-7.495-3.879-9.528-15.836-6.194-29.997z" fill="#42293d"/></g></g><g fill="#22273b"><path d="m374.513 405.34 34.266 17.73c-3.752 2.72-7.911 4.806-12.284 6.197-10.528 3.348-22.331 2.683-32.917-2.794z"/><path d="m445.647 361.793-38.336-19.837 19.837-38.336c21.17 10.953 29.453 37.002 18.499 58.173z"/><path d="m398.183 361.984h23.794v43.164h-23.794z" transform="matrix(.46 -.888 .888 .46 -119.041 571.501)"/></g></g><g><path d="m258.588 274.778c-5.239 0-9.486-4.247-9.486-9.486v-33.939c0-5.239 4.247-9.486 9.486-9.486 5.238 0 9.485 4.247 9.485 9.485v33.94c0 5.239-4.247 9.486-9.485 9.486z" fill="#22273b"/><g><g fill="#22273b"><path d="m243.764 159.001c-3.926 0-7.109-3.183-7.109-7.109v-50.801c0-9.19-7.477-16.668-16.669-16.668-3.926 0-7.109-3.183-7.109-7.109s3.183-7.109 7.109-7.109c17.031 0 30.886 13.856 30.887 30.886v50.801c.001 3.927-3.182 7.109-7.109 7.109z"/><path d="m273.087 159.002c-3.926 0-7.109-3.183-7.109-7.109v-50.802c0-17.03 13.855-30.886 30.886-30.886 3.926 0 7.109 3.183 7.109 7.109s-3.183 7.109-7.109 7.109c-9.191 0-16.668 7.477-16.668 16.668v50.801c0 3.927-3.183 7.11-7.109 7.11z"/></g><g><path d="m228.476 186.083v17.371c0 6.264-3.337 12.052-8.765 15.18l-34.182 19.738c-15.305 8.84-35.47-1.798-35.102-21.394.226-12.403 10.647-22.197 23.05-22.197h.376c-13.24 0-23.376-10.822-23.376-23.318 0-1.999.259-4.04.811-6.089 3.68-14.879 20.591-22.08 33.864-14.419l34.558 19.947c5.429 3.129 8.766 8.917 8.766 15.181z" fill="#fff"/><path d="m228.476 194.781v8.673c0 6.264-3.337 12.052-8.765 15.18l-34.182 19.738c-15.305 8.84-35.47-1.798-35.102-21.394.226-12.403 10.647-22.197 23.05-22.197z" fill="#d0f6ff"/><path d="m366.424 216.978c.368 19.596-19.797 30.234-35.102 21.394l-34.182-19.738c-5.428-3.128-8.765-8.916-8.765-15.18v-17.371c0-6.264 3.337-12.052 8.765-15.18l34.558-19.947c13.273-7.661 30.184-.46 33.864 14.419.552 2.049.811 4.09.811 6.089 0 12.495-10.137 23.318-23.376 23.318h.376c12.405-.001 22.826 9.793 23.051 22.196z" fill="#d0f6ff"/><path d="m366.424 216.978c.368 19.596-19.797 30.234-35.102 21.394l-34.182-19.738c-5.428-3.128-8.765-8.916-8.765-15.18v-8.673h54.999c12.404 0 22.825 9.794 23.05 22.197z" fill="#b0edf7"/></g><g><path d="m301.59 206.582v4.416c0 6.967-1.647 13.541-4.583 19.37h-.008c-11.826 7.293-25.2 10.939-38.573 10.939-5.436 0-10.873-.602-16.2-1.806-7.786-1.757-15.355-4.801-22.373-9.133-2.944-5.821-4.592-12.403-4.592-19.37v-4.416c7-3.002 14.227-5.244 21.578-6.724 7.126-1.439 14.36-2.15 21.586-2.15 14.696 0 29.391 2.961 43.165 8.874z" fill="#ffe652"/><path d="m258.426 197.708c14.695 0 29.39 2.961 43.164 8.874v4.416c0 6.967-1.647 13.541-4.583 19.37h-.008c-11.826 7.293-25.2 10.939-38.573 10.939-5.436 0-10.873-.602-16.2-1.806-1.213-2.76-2.258-5.821-3.086-9.133-1.472-5.821-2.3-12.403-2.3-19.37v-11.14c7.125-1.439 14.359-2.15 21.586-2.15z" fill="#fed110"/><path d="m258.426 197.708c14.695 0 29.39 2.961 43.164 8.874v4.416c0 6.967-1.647 13.541-4.583 19.37h-.008c-11.826 7.293-25.2 10.939-38.573 10.939z" fill="#ff9f01"/><path d="m301.59 159.002v23.794c-13.783 5.913-28.469 8.874-43.164 8.865-7.226 0-14.469-.711-21.586-2.149-7.352-1.48-14.578-3.722-21.578-6.724v-23.786c7.084-3.036 14.402-5.294 21.845-6.766 7.042-1.405 14.185-2.099 21.319-2.099 14.695-.001 29.389 2.952 43.164 8.865z" fill="#ffe652"/><path d="m301.59 159.002v23.794c-13.783 5.913-28.469 8.874-43.164 8.865-7.226 0-14.469-.711-21.586-2.149v-30.511c0-2.3.092-4.558.268-6.766 7.042-1.405 14.185-2.099 21.319-2.099 14.694 0 29.388 2.953 43.163 8.866z" fill="#fed110"/><path d="m301.59 159.002v23.794c-13.783 5.913-28.469 8.874-43.164 8.865v-41.525c14.695 0 29.389 2.953 43.164 8.866z" fill="#ff9f01"/><path d="m301.59 159.002h-86.329c0-23.836 19.328-43.164 43.164-43.164 23.837-.001 43.165 19.327 43.165 43.164z" fill="#53354b"/><path d="m301.59 159.002h-64.751c0-23.836 9.668-43.164 21.586-43.164 23.837-.001 43.165 19.327 43.165 43.164z" fill="#42293d"/><path d="m215.261 182.788h86.329v23.794h-86.329z" fill="#53354b"/><path d="m236.839 182.788h64.751v23.795h-64.751z" fill="#42293d"/><path d="m297.007 230.368c-2.082 4.14-4.817 7.904-8.062 11.149-7.812 7.811-18.601 12.646-30.519 12.646-16.869 0-31.48-9.685-38.573-23.794h77.154z" fill="#53354b"/><path d="m239.139 230.368h57.868c-2.082 4.14-4.817 7.904-8.062 11.149-7.812 7.811-18.601 12.646-30.519 12.646-8.439 0-15.741-9.686-19.287-23.795z" fill="#42293d"/></g></g><g fill="#22273b"><path d="m258.426 230.368h38.581c-2.082 4.14-4.817 7.904-8.062 11.149-7.812 7.811-18.601 12.646-30.519 12.646z"/><path d="m301.59 159.002h-43.165v-43.164c23.837-.001 43.165 19.327 43.165 43.164z"/><path d="m258.426 182.788h43.164v23.795h-43.164z"/></g></g></g></g></svg>